<svg width="24" height="24" viewBox="0 0 25 24" fill="none" xmlns="http://www.w3.org/2000/svg">
<path d="M2.45001 5.625H14.45C15.2457 5.625 16.0087 5.94107 16.5713 6.50368C17.1339 7.06629 17.45 7.82935 17.45 8.625V17.625C17.45 17.8239 17.371 18.0147 17.2303 18.1553C17.0897 18.296 16.8989 18.375 16.7 18.375H4.70001C3.90436 18.375 3.1413 18.0589 2.57869 17.4963C2.01608 16.9337 1.70001 16.1706 1.70001 15.375V6.375C1.70001 6.17609 1.77903 5.98532 1.91968 5.84467C2.06033 5.70402 2.2511 5.625 2.45001 5.625V5.625Z" stroke="#CCCCCC" stroke-width="1.5" stroke-linecap="round" stroke-linejoin="round"/>
<path d="M17.45 10.5L22.7 7.5V16.5L17.45 13.5" stroke="#CCCCCC" stroke-width="1.5" stroke-linecap="round" stroke-linejoin="round"/>
</svg>
